<?xml version="1.0" encoding="UTF-8" standalone="no"?>
<!-- Created with Digital by H.Neemann -->
<!-- created: Fri Jan 17 09:53:59 EST 2025 -->

<svg
   xmlns:svg="http://www.w3.org/2000/svg"
   xmlns="http://www.w3.org/2000/svg"
   width="161.85mm"
   height="201.9mm"
   viewBox="-477 -364 1079 1346">
<g stroke-linecap="square">
<path d="M -440,-20 L -440,0 L 20,0" stroke="#0000b2" stroke-width="4.0" fill="none"/>
<path d="M -260,80 L -260,320 L 20,320" stroke="#0000b2" stroke-width="4.0" fill="none"/>
<path d="M -280,960 L -280,640 L 20,640 L 24,640" stroke="#0000b2" stroke-width="4.0" fill="none"/>
<path d="M -280,980 L -280,960 L 20,960" stroke="#0000b2" stroke-width="4.0" fill="none"/>
<path d="M 100,260 L 120,260 L 120,280 L 160,280 L 164,280" stroke="#0000b2" stroke-width="4.0" fill="none"/>
<path d="M 100,580 L 120,580 L 120,560 L 140,560 L 144,560" stroke="#0000b2" stroke-width="4.0" fill="none"/>
<path d="M -280,280 L -280,520 L 20,520" stroke="#0000b2" stroke-width="4.0" fill="none"/>
<path d="M -40,980 L -40,840 L 20,840" stroke="#0000b2" stroke-width="4.0" fill="none"/>
<path d="M -460,-100 L -460,-80 L -440,-80 L -440,-60" stroke="#0000b2" stroke-width="4.0" fill="none"/>
<path d="M -280,-100 L -280,-80 L -260,-80 L -260,-60" stroke="#0000b2" stroke-width="4.0" fill="none"/>
<path d="M -220,-100 L -220,-80 L -200,-80 L -200,-60" stroke="#0000b2" stroke-width="4.0" fill="none"/>
<path d="M -160,-100 L -160,-80 L -140,-80 L -140,-60" stroke="#0000b2" stroke-width="4.0" fill="none"/>
<path d="M -100,-100 L -100,-80 L -80,-80 L -80,-60" stroke="#0000b2" stroke-width="4.0" fill="none"/>
<path d="M -40,-100 L -40,-80 L -20,-80 L -20,-60" stroke="#0000b2" stroke-width="4.0" fill="none"/>
<path d="M -260,-20 L -260,80 L 20,80 L 24,80" stroke="#0000b2" stroke-width="4.0" fill="none"/>
<path d="M -260,320 L -260,400 L 20,400" stroke="#0000b2" stroke-width="4.0" fill="none"/>
<path d="M -80,480 L -80,720 L 20,720" stroke="#0000b2" stroke-width="4.0" fill="none"/>
<path d="M 100,20 L 260,20" stroke="#0000b2" stroke-width="4.0" fill="none"/>
<path d="M 100,340 L 120,340 L 120,320 L 160,320 L 164,320" stroke="#0000b2" stroke-width="4.0" fill="none"/>
<path d="M 100,660 L 260,660" stroke="#0000b2" stroke-width="4.0" fill="none"/>
<path d="M -200,-20 L -200,600 L 20,600" stroke="#0000b2" stroke-width="4.0" fill="none"/>
<path d="M -100,980 L -100,920 L 20,920" stroke="#0000b2" stroke-width="4.0" fill="none"/>
<path d="M 220,540 L 260,540" stroke="#0000b2" stroke-width="4.0" fill="none"/>
<path d="M -100,-80 L -100,160 L 20,160" stroke="#0000b2" stroke-width="4.0" fill="none"/>
<path d="M -80,-20 L -80,480 L 20,480" stroke="#0000b2" stroke-width="4.0" fill="none"/>
<path d="M -100,160 L -100,800 L 20,800" stroke="#0000b2" stroke-width="4.0" fill="none"/>
<path d="M 100,100 L 260,100" stroke="#0000b2" stroke-width="4.0" fill="none"/>
<path d="M 100,420 L 140,420 L 140,340 L 160,340" stroke="#0000b2" stroke-width="4.0" fill="none"/>
<path d="M 100,740 L 120,740 L 120,800 L 140,800 L 144,800" stroke="#0000b2" stroke-width="4.0" fill="none"/>
<path d="M -400,-100 L -400,40 L 20,40" stroke="#0000b2" stroke-width="4.0" fill="none"/>
<path d="M -140,-20 L -140,360 L 20,360" stroke="#0000b2" stroke-width="4.0" fill="none"/>
<path d="M 240,300 L 260,300" stroke="#0000b2" stroke-width="4.0" fill="none"/>
<path d="M -20,980 L -20,940 L 20,940" stroke="#0000b2" stroke-width="4.0" fill="none"/>
<path d="M 100,940 L 260,940" stroke="#0000b2" stroke-width="4.0" fill="none"/>
<path d="M -20,-20 L -20,240 L 20,240" stroke="#0000b2" stroke-width="4.0" fill="none"/>
<path d="M -260,880 L -260,560 L 20,560" stroke="#0000b2" stroke-width="4.0" fill="none"/>
<path d="M -260,980 L -260,880 L 120,880 L 120,840 L 140,840 L 144,840" stroke="#0000b2" stroke-width="4.0" fill="none"/>
<path d="M 100,180 L 140,180 L 140,260 L 160,260" stroke="#0000b2" stroke-width="4.0" fill="none"/>
<path d="M -40,-80 L -40,500 L 20,500" stroke="#0000b2" stroke-width="4.0" fill="none"/>
<path d="M 100,500 L 120,500 L 120,520 L 140,520 L 144,520" stroke="#0000b2" stroke-width="4.0" fill="none"/>
<path d="M 100,820 L 140,820 L 147,820" stroke="#0000b2" stroke-width="4.0" fill="none"/>
<path d="M 220,820 L 260,820" stroke="#0000b2" stroke-width="4.0" fill="none"/>
<path d="M -340,-100 L -340,120 L 20,120 L 24,120" stroke="#0000b2" stroke-width="4.0" fill="none"/>
<path d="M -20,240 L -20,760 L 20,760" stroke="#0000b2" stroke-width="4.0" fill="none"/>
<path d="M -260,400 L -260,560" stroke="#0000b2" stroke-width="4.0" fill="none"/>
<path d="M -100,800 L -100,920" stroke="#0000b2" stroke-width="4.0" fill="none"/>
<path d="M -200,600 L -200,980" stroke="#0000b2" stroke-width="4.0" fill="none"/>
<path d="M -40,500 L -40,840" stroke="#0000b2" stroke-width="4.0" fill="none"/>
<path d="M -460,-80 L -460,980" stroke="#0000b2" stroke-width="4.0" fill="none"/>
<path d="M -140,360 L -140,980" stroke="#0000b2" stroke-width="4.0" fill="none"/>
<path d="M -400,40 L -400,980" stroke="#0000b2" stroke-width="4.0" fill="none"/>
<path d="M -80,720 L -80,980" stroke="#0000b2" stroke-width="4.0" fill="none"/>
<path d="M -340,120 L -340,980" stroke="#0000b2" stroke-width="4.0" fill="none"/>
<path d="M -20,760 L -20,940" stroke="#0000b2" stroke-width="4.0" fill="none"/>
<path d="M -440,0 L -440,980" stroke="#0000b2" stroke-width="4.0" fill="none"/>
<path d="M 20,200 L -280,200 L -280,280 L 20,280" stroke="#0000b2" stroke-width="4.0" fill="none"/>
<path d="M -280,-80 L -280,200" stroke="#0000b2" stroke-width="4.0" fill="none"/>
<path d="M -280,520 L -280,640" stroke="#0000b2" stroke-width="4.0" fill="none"/>
<path d="M 24,680 L 20,680 L -220,680 L -220,440 L 20,440" stroke="#0000b2" stroke-width="4.0" fill="none"/>
<path d="M -220,-80 L -220,440" stroke="#0000b2" stroke-width="4.0" fill="none"/>
<path d="M -220,680 L -220,980" stroke="#0000b2" stroke-width="4.0" fill="none"/>
<path d="M -160,-80 L -160,980" stroke="#0000b2" stroke-width="4.0" fill="none"/>
<path d="M 161,260 L 161,269" stroke="#000000" stroke-width="4.0" fill="none"/>
<path d="M 161,340 L 161,331" stroke="#000000" stroke-width="4.0" fill="none"/>
<g>
<circle cx="-440.0" cy="0.0" r="4.0" stroke="#0000b2" stroke-width="4.0" fill="#0000b2" />
<circle cx="-260.0" cy="320.0" r="4.0" stroke="#0000b2" stroke-width="4.0" fill="#0000b2" />
<circle cx="-280.0" cy="640.0" r="4.0" stroke="#0000b2" stroke-width="4.0" fill="#0000b2" />
<circle cx="-280.0" cy="960.0" r="4.0" stroke="#0000b2" stroke-width="4.0" fill="#0000b2" />
<circle cx="-280.0" cy="200.0" r="4.0" stroke="#0000b2" stroke-width="4.0" fill="#0000b2" />
<circle cx="-280.0" cy="520.0" r="4.0" stroke="#0000b2" stroke-width="4.0" fill="#0000b2" />
<circle cx="-40.0" cy="840.0" r="4.0" stroke="#0000b2" stroke-width="4.0" fill="#0000b2" />
<circle cx="-460.0" cy="-80.0" r="4.0" stroke="#0000b2" stroke-width="4.0" fill="#0000b2" />
<circle cx="-280.0" cy="-80.0" r="4.0" stroke="#0000b2" stroke-width="4.0" fill="#0000b2" />
<circle cx="-220.0" cy="-80.0" r="4.0" stroke="#0000b2" stroke-width="4.0" fill="#0000b2" />
<circle cx="-160.0" cy="-80.0" r="4.0" stroke="#0000b2" stroke-width="4.0" fill="#0000b2" />
<circle cx="-100.0" cy="-80.0" r="4.0" stroke="#0000b2" stroke-width="4.0" fill="#0000b2" />
<circle cx="-40.0" cy="-80.0" r="4.0" stroke="#0000b2" stroke-width="4.0" fill="#0000b2" />
<circle cx="-260.0" cy="80.0" r="4.0" stroke="#0000b2" stroke-width="4.0" fill="#0000b2" />
<circle cx="-260.0" cy="400.0" r="4.0" stroke="#0000b2" stroke-width="4.0" fill="#0000b2" />
<circle cx="-80.0" cy="720.0" r="4.0" stroke="#0000b2" stroke-width="4.0" fill="#0000b2" />
<circle cx="-280.0" cy="280.0" r="4.0" stroke="#0000b2" stroke-width="4.0" fill="#0000b2" />
<circle cx="-200.0" cy="600.0" r="4.0" stroke="#0000b2" stroke-width="4.0" fill="#0000b2" />
<circle cx="-100.0" cy="920.0" r="4.0" stroke="#0000b2" stroke-width="4.0" fill="#0000b2" />
<circle cx="-100.0" cy="160.0" r="4.0" stroke="#0000b2" stroke-width="4.0" fill="#0000b2" />
<circle cx="-80.0" cy="480.0" r="4.0" stroke="#0000b2" stroke-width="4.0" fill="#0000b2" />
<circle cx="-100.0" cy="800.0" r="4.0" stroke="#0000b2" stroke-width="4.0" fill="#0000b2" />
<circle cx="-400.0" cy="40.0" r="4.0" stroke="#0000b2" stroke-width="4.0" fill="#0000b2" />
<circle cx="-140.0" cy="360.0" r="4.0" stroke="#0000b2" stroke-width="4.0" fill="#0000b2" />
<circle cx="-220.0" cy="680.0" r="4.0" stroke="#0000b2" stroke-width="4.0" fill="#0000b2" />
<circle cx="-20.0" cy="940.0" r="4.0" stroke="#0000b2" stroke-width="4.0" fill="#0000b2" />
<circle cx="-20.0" cy="240.0" r="4.0" stroke="#0000b2" stroke-width="4.0" fill="#0000b2" />
<circle cx="-260.0" cy="560.0" r="4.0" stroke="#0000b2" stroke-width="4.0" fill="#0000b2" />
<circle cx="-260.0" cy="880.0" r="4.0" stroke="#0000b2" stroke-width="4.0" fill="#0000b2" />
<circle cx="-40.0" cy="500.0" r="4.0" stroke="#0000b2" stroke-width="4.0" fill="#0000b2" />
<circle cx="-340.0" cy="120.0" r="4.0" stroke="#0000b2" stroke-width="4.0" fill="#0000b2" />
<circle cx="-220.0" cy="440.0" r="4.0" stroke="#0000b2" stroke-width="4.0" fill="#0000b2" />
<circle cx="-20.0" cy="760.0" r="4.0" stroke="#0000b2" stroke-width="4.0" fill="#0000b2" />
</g>
<g>
<circle cx="276.0" cy="20.0" r="9.0" stroke="#000000" stroke-width="4.0" fill="none" />
<circle cx="276.0" cy="20.0" r="15.0" stroke="#000000" stroke-width="4.0" fill="none" />
<text text-anchor="start" x="305.0" y="29.0" fill="#000000" style="font-size:24px"><tspan style="font-style:italic;">MAR<tspan style="font-size:80%;baseline-shift:sub;">Clock</tspan> (19)</tspan></text>
</g>
<g>
<path d="M 70,50 L 21,50 L 21,-10 L 70,-10 C 80,-10 100,0 99,20 C 99,40 80,50 70,50 Z" stroke="#000000" stroke-width="4.0" fill="none"/>
</g>
<g>
<circle cx="276.0" cy="100.0" r="9.0" stroke="#000000" stroke-width="4.0" fill="none" />
<circle cx="276.0" cy="100.0" r="15.0" stroke="#000000" stroke-width="4.0" fill="none" />
<text text-anchor="start" x="305.0" y="109.0" fill="#000000" style="font-size:24px"><tspan style="font-style:italic;">Halt<tspan style="font-size:80%;baseline-shift:sub;">Out</tspan> (18)</tspan></text>
</g>
<g>
<path d="M 50,130 L 20,130 C 30,114 30,86 20,70 L 40,70 C 70,70 90,80 100,100 C 90,120 70,130 50,130 Z" stroke="#000000" stroke-width="4.0" fill="none"/>
</g>
<g>
<circle cx="276.0" cy="300.0" r="9.0" stroke="#000000" stroke-width="4.0" fill="none" />
<circle cx="276.0" cy="300.0" r="15.0" stroke="#000000" stroke-width="4.0" fill="none" />
<text text-anchor="start" x="305.0" y="309.0" fill="#000000" style="font-size:24px"><tspan style="font-style:italic;">/RAM<tspan style="font-size:80%;baseline-shift:sub;">Write</tspan> (13)</tspan></text>
</g>
<g>
<path d="M 190,330 L 160,330 C 170,314 170,286 160,270 L 180,270 C 210,270 230,280 240,300 C 230,320 210,330 190,330 Z" stroke="#000000" stroke-width="4.0" fill="none"/>
</g>
<g>
<path d="M 70,210 L 21,210 L 21,150 L 70,150 C 80,150 100,160 99,180 C 99,200 80,210 70,210 Z" stroke="#000000" stroke-width="4.0" fill="none"/>
</g>
<g>
<path d="M 70,290 L 21,290 L 21,230 L 70,230 C 80,230 100,240 99,260 C 99,280 80,290 70,290 Z" stroke="#000000" stroke-width="4.0" fill="none"/>
</g>
<g>
<path d="M 70,370 L 21,370 L 21,310 L 70,310 C 80,310 100,320 99,340 C 99,360 80,370 70,370 Z" stroke="#000000" stroke-width="4.0" fill="none"/>
</g>
<g>
<path d="M 70,450 L 21,450 L 21,390 L 70,390 C 80,390 100,400 99,420 C 99,440 80,450 70,450 Z" stroke="#000000" stroke-width="4.0" fill="none"/>
</g>
<g>
<circle cx="276.0" cy="540.0" r="9.0" stroke="#000000" stroke-width="4.0" fill="none" />
<circle cx="276.0" cy="540.0" r="15.0" stroke="#000000" stroke-width="4.0" fill="none" />
<text text-anchor="start" x="305.0" y="549.0" fill="#000000" style="font-size:24px"><tspan style="font-style:italic;">/RAM<tspan style="font-size:80%;baseline-shift:sub;">OutputEnable</tspan> (14)</tspan></text>
</g>
<g>
<path d="M 170,570 L 140,570 C 150,554 150,526 140,510 L 160,510 C 190,510 210,520 220,540 C 210,560 190,570 170,570 Z" stroke="#000000" stroke-width="4.0" fill="none"/>
</g>
<g>
<path d="M 70,530 L 21,530 L 21,470 L 70,470 C 80,470 100,480 99,500 C 99,520 80,530 70,530 Z" stroke="#000000" stroke-width="4.0" fill="none"/>
</g>
<g>
<path d="M 70,610 L 21,610 L 21,550 L 70,550 C 80,550 100,560 99,580 C 99,600 80,610 70,610 Z" stroke="#000000" stroke-width="4.0" fill="none"/>
</g>
<g>
<circle cx="276.0" cy="660.0" r="9.0" stroke="#000000" stroke-width="4.0" fill="none" />
<circle cx="276.0" cy="660.0" r="15.0" stroke="#000000" stroke-width="4.0" fill="none" />
<text text-anchor="start" x="305.0" y="669.0" fill="#000000" style="font-size:24px"><tspan style="font-style:italic;">/User<tspan style="font-size:80%;baseline-shift:sub;">OutputEnable</tspan> (15)</tspan></text>
</g>
<g>
<path d="M 50,690 L 20,690 C 30,674 30,646 20,630 L 40,630 C 70,630 90,640 100,660 C 90,680 70,690 50,690 Z" stroke="#000000" stroke-width="4.0" fill="none"/>
</g>
<g>
<circle cx="276.0" cy="820.0" r="9.0" stroke="#000000" stroke-width="4.0" fill="none" />
<circle cx="276.0" cy="820.0" r="15.0" stroke="#000000" stroke-width="4.0" fill="none" />
<text text-anchor="start" x="305.0" y="829.0" fill="#000000" style="font-size:24px"><tspan style="font-style:italic;">/Databus<tspan style="font-size:80%;baseline-shift:sub;">OutputEnable</tspan> (16)</tspan></text>
</g>
<g>
<path d="M 170,850 L 140,850 C 150,834 150,806 140,790 L 160,790 C 190,790 210,800 220,820 C 210,840 190,850 170,850 Z" stroke="#000000" stroke-width="4.0" fill="none"/>
</g>
<g>
<path d="M 70,770 L 21,770 L 21,710 L 70,710 C 80,710 100,720 99,740 C 99,760 80,770 70,770 Z" stroke="#000000" stroke-width="4.0" fill="none"/>
</g>
<g>
<path d="M 70,850 L 21,850 L 21,790 L 70,790 C 80,790 100,800 99,820 C 99,840 80,850 70,850 Z" stroke="#000000" stroke-width="4.0" fill="none"/>
</g>
<g>
<circle cx="276.0" cy="940.0" r="9.0" stroke="#000000" stroke-width="4.0" fill="none" />
<circle cx="276.0" cy="940.0" r="15.0" stroke="#000000" stroke-width="4.0" fill="none" />
<text text-anchor="start" x="305.0" y="949.0" fill="#000000" style="font-size:24px"><tspan style="font-style:italic;">Databus<tspan style="font-size:80%;baseline-shift:sub;">Direction</tspan> (17)</tspan></text>
</g>
<g>
<path d="M 70,970 L 21,970 L 21,910 L 70,910 C 80,910 100,920 99,940 C 99,960 80,970 70,970 Z" stroke="#000000" stroke-width="4.0" fill="none"/>
</g>
<g>
<path d="M -445,-131 L -445,-101 L -475,-101 L -475,-131 Z" stroke="#000000" stroke-width="4.0" fill="none"/>
<circle cx="-460.0" cy="-116.0" r="9.0" stroke="#000000" stroke-width="4.0" fill="none" />
<text text-anchor="start" x="-460.0" y="-136.0" fill="#000000" style="font-size:24px" transform="rotate(-90,-460.0,-145.0)" ><tspan style="font-style:italic;">/Control<tspan style="font-size:80%;baseline-shift:sub;">MARIn</tspan> (4)</tspan></text>
</g>
<g>
<path d="M -428,-59 L -440,-41 L -452,-59 Z" stroke="#000000" stroke-width="4.0" fill="none"/>
<circle cx="-440.0" cy="-30.0" r="9.0" stroke="#000000" stroke-width="4.0" fill="none" />
</g>
<g>
<path d="M -385,-131 L -385,-101 L -415,-101 L -415,-131 Z" stroke="#000000" stroke-width="4.0" fill="none"/>
<circle cx="-400.0" cy="-116.0" r="9.0" stroke="#000000" stroke-width="4.0" fill="none" />
<text text-anchor="start" x="-400.0" y="-136.0" fill="#000000" style="font-size:24px" transform="rotate(-90,-400.0,-145.0)" ><tspan style="font-style:italic;">Control<tspan style="font-size:80%;baseline-shift:sub;">Clock</tspan> (2)</tspan></text>
</g>
<g>
<path d="M -325,-131 L -325,-101 L -355,-101 L -355,-131 Z" stroke="#000000" stroke-width="4.0" fill="none"/>
<circle cx="-340.0" cy="-116.0" r="9.0" stroke="#000000" stroke-width="4.0" fill="none" />
<text text-anchor="start" x="-340.0" y="-136.0" fill="#000000" style="font-size:24px" transform="rotate(-90,-340.0,-145.0)" ><tspan style="font-style:italic;">Control<tspan style="font-size:80%;baseline-shift:sub;">HaltIn</tspan> (3)</tspan></text>
</g>
<g>
<path d="M -265,-131 L -265,-101 L -295,-101 L -295,-131 Z" stroke="#000000" stroke-width="4.0" fill="none"/>
<circle cx="-280.0" cy="-116.0" r="9.0" stroke="#000000" stroke-width="4.0" fill="none" />
<text text-anchor="start" x="-280.0" y="-136.0" fill="#000000" style="font-size:24px" transform="rotate(-90,-280.0,-145.0)" ><tspan style="font-style:italic;">/User<tspan style="font-size:80%;baseline-shift:sub;">Program</tspan> (8)</tspan></text>
</g>
<g>
<path d="M -248,-59 L -260,-41 L -272,-59 Z" stroke="#000000" stroke-width="4.0" fill="none"/>
<circle cx="-260.0" cy="-30.0" r="9.0" stroke="#000000" stroke-width="4.0" fill="none" />
</g>
<g>
<path d="M -205,-131 L -205,-101 L -235,-101 L -235,-131 Z" stroke="#000000" stroke-width="4.0" fill="none"/>
<circle cx="-220.0" cy="-116.0" r="9.0" stroke="#000000" stroke-width="4.0" fill="none" />
<text text-anchor="start" x="-220.0" y="-136.0" fill="#000000" style="font-size:24px" transform="rotate(-90,-220.0,-145.0)" ><tspan style="font-style:italic;">User<tspan style="font-size:80%;baseline-shift:sub;">Inspect</tspan> (7)</tspan></text>
</g>
<g>
<path d="M -188,-59 L -200,-41 L -212,-59 Z" stroke="#000000" stroke-width="4.0" fill="none"/>
<circle cx="-200.0" cy="-30.0" r="9.0" stroke="#000000" stroke-width="4.0" fill="none" />
</g>
<g>
<path d="M -145,-131 L -145,-101 L -175,-101 L -175,-131 Z" stroke="#000000" stroke-width="4.0" fill="none"/>
<circle cx="-160.0" cy="-116.0" r="9.0" stroke="#000000" stroke-width="4.0" fill="none" />
<text text-anchor="start" x="-160.0" y="-136.0" fill="#000000" style="font-size:24px" transform="rotate(-90,-160.0,-145.0)" ><tspan style="font-style:italic;">User<tspan style="font-size:80%;baseline-shift:sub;">Write</tspan> (9)</tspan></text>
</g>
<g>
<path d="M -128,-59 L -140,-41 L -152,-59 Z" stroke="#000000" stroke-width="4.0" fill="none"/>
<circle cx="-140.0" cy="-30.0" r="9.0" stroke="#000000" stroke-width="4.0" fill="none" />
</g>
<g>
<path d="M -85,-131 L -85,-101 L -115,-101 L -115,-131 Z" stroke="#000000" stroke-width="4.0" fill="none"/>
<circle cx="-100.0" cy="-116.0" r="9.0" stroke="#000000" stroke-width="4.0" fill="none" />
<text text-anchor="start" x="-100.0" y="-136.0" fill="#000000" style="font-size:24px" transform="rotate(-90,-100.0,-145.0)" ><tspan style="font-style:italic;">/Control<tspan style="font-size:80%;baseline-shift:sub;">RAMIn</tspan> (5)</tspan></text>
</g>
<g>
<path d="M -68,-59 L -80,-41 L -92,-59 Z" stroke="#000000" stroke-width="4.0" fill="none"/>
<circle cx="-80.0" cy="-30.0" r="9.0" stroke="#000000" stroke-width="4.0" fill="none" />
</g>
<g>
<path d="M -25,-131 L -25,-101 L -55,-101 L -55,-131 Z" stroke="#000000" stroke-width="4.0" fill="none"/>
<circle cx="-40.0" cy="-116.0" r="9.0" stroke="#000000" stroke-width="4.0" fill="none" />
<text text-anchor="start" x="-40.0" y="-136.0" fill="#000000" style="font-size:24px" transform="rotate(-90,-40.0,-145.0)" ><tspan style="font-style:italic;">/Control<tspan style="font-size:80%;baseline-shift:sub;">RAMOut</tspan> (6)</tspan></text>
</g>
<g>
<path d="M -8,-59 L -20,-41 L -32,-59 Z" stroke="#000000" stroke-width="4.0" fill="none"/>
<circle cx="-20.0" cy="-30.0" r="9.0" stroke="#000000" stroke-width="4.0" fill="none" />
</g>
</g>
</svg>