<?xml version="1.0" encoding="UTF-8" standalone="no"?>
<!-- Created with Digital by H.Neemann -->
<!-- created: Thu Jan 16 21:21:10 EST 2025 -->

<svg
   xmlns:svg="http://www.w3.org/2000/svg"
   xmlns="http://www.w3.org/2000/svg"
   width="131.85mm"
   height="223.35mm"
   viewBox="-477 -267 879 1489">
<g stroke-linecap="square">
<path d="M 161,260 L 161,269" stroke="#000000" stroke-width="4.0" fill="none"/>
<path d="M 161,340 L 161,331" stroke="#000000" stroke-width="4.0" fill="none"/>
<path d="M -80,-20 L -80,0 L 20,0" stroke="#0000b2" stroke-width="4.0" fill="none"/>
<path d="M -200,-20 L -200,640 L 20,640" stroke="#0000b2" stroke-width="4.0" fill="none"/>
<path d="M 100,260 L 120,260 L 120,280 L 160,280 L 164,280" stroke="#0000b2" stroke-width="4.0" fill="none"/>
<path d="M 100,900 L 140,900 L 147,900" stroke="#0000b2" stroke-width="4.0" fill="none"/>
<path d="M 220,900 L 260,900" stroke="#0000b2" stroke-width="4.0" fill="none"/>
<path d="M -400,-100 L -400,1160 L 20,1160" stroke="#0000b2" stroke-width="4.0" fill="none"/>
<path d="M -460,680 L -460,400 L 20,400" stroke="#0000b2" stroke-width="4.0" fill="none"/>
<path d="M -440,1220 L -440,1040 L 20,1040" stroke="#0000b2" stroke-width="4.0" fill="none"/>
<path d="M -20,-20 L -20,20 L 20,20" stroke="#0000b2" stroke-width="4.0" fill="none"/>
<path d="M 100,20 L 120,20 L 120,40 L 140,40 L 144,40" stroke="#0000b2" stroke-width="4.0" fill="none"/>
<path d="M 100,660 L 120,660 L 120,600 L 140,600 L 144,600" stroke="#0000b2" stroke-width="4.0" fill="none"/>
<path d="M -40,1220 L -40,920 L 20,920" stroke="#0000b2" stroke-width="4.0" fill="none"/>
<path d="M 100,1180 L 260,1180" stroke="#0000b2" stroke-width="4.0" fill="none"/>
<path d="M 100,420 L 140,420 L 140,340 L 160,340" stroke="#0000b2" stroke-width="4.0" fill="none"/>
<path d="M -440,-20 L -440,40 L 20,40" stroke="#0000b2" stroke-width="4.0" fill="none"/>
<path d="M 240,300 L 260,300" stroke="#0000b2" stroke-width="4.0" fill="none"/>
<path d="M -340,-100 L -340,1200 L 20,1200" stroke="#0000b2" stroke-width="4.0" fill="none"/>
<path d="M 100,180 L 140,180 L 140,260 L 160,260" stroke="#0000b2" stroke-width="4.0" fill="none"/>
<path d="M 100,820 L 120,820 L 120,880 L 140,880 L 144,880" stroke="#0000b2" stroke-width="4.0" fill="none"/>
<path d="M -260,-20 L -260,440 L 20,440" stroke="#0000b2" stroke-width="4.0" fill="none"/>
<path d="M -160,-100 L -160,1080 L 20,1080 L 24,1080" stroke="#0000b2" stroke-width="4.0" fill="none"/>
<path d="M 220,60 L 260,60" stroke="#0000b2" stroke-width="4.0" fill="none"/>
<path d="M 100,580 L 140,580 L 147,580" stroke="#0000b2" stroke-width="4.0" fill="none"/>
<path d="M 220,580 L 260,580" stroke="#0000b2" stroke-width="4.0" fill="none"/>
<path d="M -440,280 L -440,200 L 20,200" stroke="#0000b2" stroke-width="4.0" fill="none"/>
<path d="M 100,1100 L 260,1100" stroke="#0000b2" stroke-width="4.0" fill="none"/>
<path d="M -460,-100 L -460,-80 L -440,-80 L -440,-60" stroke="#0000b2" stroke-width="4.0" fill="none"/>
<path d="M -280,-100 L -280,-80 L -260,-80 L -260,-60" stroke="#0000b2" stroke-width="4.0" fill="none"/>
<path d="M -220,-100 L -220,-80 L -200,-80 L -200,-60" stroke="#0000b2" stroke-width="4.0" fill="none"/>
<path d="M -100,-100 L -100,-80 L -80,-80 L -80,-60" stroke="#0000b2" stroke-width="4.0" fill="none"/>
<path d="M -40,-100 L -40,-80 L -20,-80 L -20,-60" stroke="#0000b2" stroke-width="4.0" fill="none"/>
<path d="M -100,-80 L -100,80 L 20,80" stroke="#0000b2" stroke-width="4.0" fill="none"/>
<path d="M 100,340 L 120,340 L 120,320 L 160,320 L 164,320" stroke="#0000b2" stroke-width="4.0" fill="none"/>
<path d="M -440,520 L -440,600 L 20,600" stroke="#0000b2" stroke-width="4.0" fill="none"/>
<path d="M -460,1220 L -460,1120 L 20,1120 L 24,1120" stroke="#0000b2" stroke-width="4.0" fill="none"/>
<path d="M -40,-80 L -40,100 L 20,100" stroke="#0000b2" stroke-width="4.0" fill="none"/>
<path d="M 100,100 L 120,100 L 120,80 L 140,80 L 144,80" stroke="#0000b2" stroke-width="4.0" fill="none"/>
<path d="M 100,740 L 260,740" stroke="#0000b2" stroke-width="4.0" fill="none"/>
<path d="M -460,-80 L -460,360 L 20,360" stroke="#0000b2" stroke-width="4.0" fill="none"/>
<path d="M -100,1220 L -100,1000 L 20,1000" stroke="#0000b2" stroke-width="4.0" fill="none"/>
<path d="M -40,100 L -40,240 L 20,240" stroke="#0000b2" stroke-width="4.0" fill="none"/>
<path d="M 100,500 L 120,500 L 120,560 L 140,560 L 144,560" stroke="#0000b2" stroke-width="4.0" fill="none"/>
<path d="M -440,40 L -440,120 L 20,120" stroke="#0000b2" stroke-width="4.0" fill="none"/>
<path d="M -440,1040 L -440,760 L 20,760 L 24,760" stroke="#0000b2" stroke-width="4.0" fill="none"/>
<path d="M -20,1220 L -20,1020 L 20,1020" stroke="#0000b2" stroke-width="4.0" fill="none"/>
<path d="M 100,1020 L 260,1020" stroke="#0000b2" stroke-width="4.0" fill="none"/>
<path d="M -260,440 L -260,1220" stroke="#0000b2" stroke-width="4.0" fill="none"/>
<path d="M 20,480 L -100,480 L -100,880 L 20,880" stroke="#0000b2" stroke-width="4.0" fill="none"/>
<path d="M -100,880 L -100,1000" stroke="#0000b2" stroke-width="4.0" fill="none"/>
<path d="M -100,80 L -100,480" stroke="#0000b2" stroke-width="4.0" fill="none"/>
<path d="M -200,640 L -200,1220" stroke="#0000b2" stroke-width="4.0" fill="none"/>
<path d="M -40,240 L -40,920" stroke="#0000b2" stroke-width="4.0" fill="none"/>
<path d="M 20,680 L -460,680 L -460,960 L 120,960 L 120,920 L 140,920 L 144,920" stroke="#0000b2" stroke-width="4.0" fill="none"/>
<path d="M -460,360 L -460,400" stroke="#0000b2" stroke-width="4.0" fill="none"/>
<path d="M -460,960 L -460,1120" stroke="#0000b2" stroke-width="4.0" fill="none"/>
<path d="M -400,1160 L -400,1220" stroke="#0000b2" stroke-width="4.0" fill="none"/>
<path d="M 20,160 L -80,160 L -80,800 L 20,800" stroke="#0000b2" stroke-width="4.0" fill="none"/>
<path d="M -80,800 L -80,1220" stroke="#0000b2" stroke-width="4.0" fill="none"/>
<path d="M -80,0 L -80,160" stroke="#0000b2" stroke-width="4.0" fill="none"/>
<path d="M -340,1200 L -340,1220" stroke="#0000b2" stroke-width="4.0" fill="none"/>
<path d="M 20,560 L -20,560 L -20,840 L 20,840" stroke="#0000b2" stroke-width="4.0" fill="none"/>
<path d="M -20,20 L -20,560" stroke="#0000b2" stroke-width="4.0" fill="none"/>
<path d="M -20,840 L -20,1020" stroke="#0000b2" stroke-width="4.0" fill="none"/>
<path d="M 20,520 L -440,520 L -440,280 L 20,280" stroke="#0000b2" stroke-width="4.0" fill="none"/>
<path d="M -440,120 L -440,200" stroke="#0000b2" stroke-width="4.0" fill="none"/>
<path d="M -440,600 L -440,760" stroke="#0000b2" stroke-width="4.0" fill="none"/>
<path d="M -280,-80 L -280,1220" stroke="#0000b2" stroke-width="4.0" fill="none"/>
<path d="M 20,320 L -220,320 L -220,720 L 20,720 L 24,720" stroke="#0000b2" stroke-width="4.0" fill="none"/>
<path d="M -220,720 L -220,1220" stroke="#0000b2" stroke-width="4.0" fill="none"/>
<path d="M -220,-80 L -220,320" stroke="#0000b2" stroke-width="4.0" fill="none"/>
<path d="M -160,1080 L -160,1220" stroke="#0000b2" stroke-width="4.0" fill="none"/>
<g>
<circle cx="-80.0" cy="0.0" r="4.0" stroke="#0000b2" stroke-width="4.0" fill="#0000b2" />
<circle cx="-200.0" cy="640.0" r="4.0" stroke="#0000b2" stroke-width="4.0" fill="#0000b2" />
<circle cx="-440.0" cy="520.0" r="4.0" stroke="#0000b2" stroke-width="4.0" fill="#0000b2" />
<circle cx="-400.0" cy="1160.0" r="4.0" stroke="#0000b2" stroke-width="4.0" fill="#0000b2" />
<circle cx="-460.0" cy="400.0" r="4.0" stroke="#0000b2" stroke-width="4.0" fill="#0000b2" />
<circle cx="-440.0" cy="1040.0" r="4.0" stroke="#0000b2" stroke-width="4.0" fill="#0000b2" />
<circle cx="-20.0" cy="20.0" r="4.0" stroke="#0000b2" stroke-width="4.0" fill="#0000b2" />
<circle cx="-440.0" cy="280.0" r="4.0" stroke="#0000b2" stroke-width="4.0" fill="#0000b2" />
<circle cx="-40.0" cy="920.0" r="4.0" stroke="#0000b2" stroke-width="4.0" fill="#0000b2" />
<circle cx="-80.0" cy="160.0" r="4.0" stroke="#0000b2" stroke-width="4.0" fill="#0000b2" />
<circle cx="-80.0" cy="800.0" r="4.0" stroke="#0000b2" stroke-width="4.0" fill="#0000b2" />
<circle cx="-440.0" cy="40.0" r="4.0" stroke="#0000b2" stroke-width="4.0" fill="#0000b2" />
<circle cx="-460.0" cy="680.0" r="4.0" stroke="#0000b2" stroke-width="4.0" fill="#0000b2" />
<circle cx="-20.0" cy="560.0" r="4.0" stroke="#0000b2" stroke-width="4.0" fill="#0000b2" />
<circle cx="-340.0" cy="1200.0" r="4.0" stroke="#0000b2" stroke-width="4.0" fill="#0000b2" />
<circle cx="-260.0" cy="440.0" r="4.0" stroke="#0000b2" stroke-width="4.0" fill="#0000b2" />
<circle cx="-160.0" cy="1080.0" r="4.0" stroke="#0000b2" stroke-width="4.0" fill="#0000b2" />
<circle cx="-220.0" cy="320.0" r="4.0" stroke="#0000b2" stroke-width="4.0" fill="#0000b2" />
<circle cx="-460.0" cy="960.0" r="4.0" stroke="#0000b2" stroke-width="4.0" fill="#0000b2" />
<circle cx="-440.0" cy="200.0" r="4.0" stroke="#0000b2" stroke-width="4.0" fill="#0000b2" />
<circle cx="-20.0" cy="840.0" r="4.0" stroke="#0000b2" stroke-width="4.0" fill="#0000b2" />
<circle cx="-460.0" cy="-80.0" r="4.0" stroke="#0000b2" stroke-width="4.0" fill="#0000b2" />
<circle cx="-280.0" cy="-80.0" r="4.0" stroke="#0000b2" stroke-width="4.0" fill="#0000b2" />
<circle cx="-220.0" cy="-80.0" r="4.0" stroke="#0000b2" stroke-width="4.0" fill="#0000b2" />
<circle cx="-100.0" cy="-80.0" r="4.0" stroke="#0000b2" stroke-width="4.0" fill="#0000b2" />
<circle cx="-40.0" cy="-80.0" r="4.0" stroke="#0000b2" stroke-width="4.0" fill="#0000b2" />
<circle cx="-100.0" cy="80.0" r="4.0" stroke="#0000b2" stroke-width="4.0" fill="#0000b2" />
<circle cx="-220.0" cy="720.0" r="4.0" stroke="#0000b2" stroke-width="4.0" fill="#0000b2" />
<circle cx="-440.0" cy="600.0" r="4.0" stroke="#0000b2" stroke-width="4.0" fill="#0000b2" />
<circle cx="-100.0" cy="480.0" r="4.0" stroke="#0000b2" stroke-width="4.0" fill="#0000b2" />
<circle cx="-460.0" cy="1120.0" r="4.0" stroke="#0000b2" stroke-width="4.0" fill="#0000b2" />
<circle cx="-40.0" cy="100.0" r="4.0" stroke="#0000b2" stroke-width="4.0" fill="#0000b2" />
<circle cx="-460.0" cy="360.0" r="4.0" stroke="#0000b2" stroke-width="4.0" fill="#0000b2" />
<circle cx="-100.0" cy="1000.0" r="4.0" stroke="#0000b2" stroke-width="4.0" fill="#0000b2" />
<circle cx="-40.0" cy="240.0" r="4.0" stroke="#0000b2" stroke-width="4.0" fill="#0000b2" />
<circle cx="-100.0" cy="880.0" r="4.0" stroke="#0000b2" stroke-width="4.0" fill="#0000b2" />
<circle cx="-440.0" cy="120.0" r="4.0" stroke="#0000b2" stroke-width="4.0" fill="#0000b2" />
<circle cx="-440.0" cy="760.0" r="4.0" stroke="#0000b2" stroke-width="4.0" fill="#0000b2" />
<circle cx="-20.0" cy="1020.0" r="4.0" stroke="#0000b2" stroke-width="4.0" fill="#0000b2" />
</g>
<g>
<circle cx="276.0" cy="60.0" r="9.0" stroke="#000000" stroke-width="4.0" fill="none" />
<circle cx="276.0" cy="60.0" r="15.0" stroke="#000000" stroke-width="4.0" fill="none" />
<text text-anchor="start" x="305.0" y="69.0" fill="#000000" style="font-size:24px"><tspan style="font-style:italic;">RAM<tspan style="font-size:80%;baseline-shift:sub;">CE</tspan></tspan></text>
</g>
<g>
<path d="M 170,90 L 140,90 C 150,74 150,46 140,30 L 160,30 C 190,30 210,40 220,60 C 210,80 190,90 170,90 Z" stroke="#000000" stroke-width="4.0" fill="none"/>
</g>
<g>
<path d="M 70,50 L 21,50 L 21,-10 L 70,-10 C 80,-10 100,0 99,20 C 99,40 80,50 70,50 Z" stroke="#000000" stroke-width="4.0" fill="none"/>
</g>
<g>
<path d="M 70,130 L 21,130 L 21,70 L 70,70 C 80,70 100,80 99,100 C 99,120 80,130 70,130 Z" stroke="#000000" stroke-width="4.0" fill="none"/>
</g>
<g>
<circle cx="276.0" cy="300.0" r="9.0" stroke="#000000" stroke-width="4.0" fill="none" />
<circle cx="276.0" cy="300.0" r="15.0" stroke="#000000" stroke-width="4.0" fill="none" />
<text text-anchor="start" x="305.0" y="309.0" fill="#000000" style="font-size:24px"><tspan style="font-style:italic;">RAM<tspan style="font-size:80%;baseline-shift:sub;">WE</tspan></tspan></text>
</g>
<g>
<path d="M 190,330 L 160,330 C 170,314 170,286 160,270 L 180,270 C 210,270 230,280 240,300 C 230,320 210,330 190,330 Z" stroke="#000000" stroke-width="4.0" fill="none"/>
</g>
<g>
<path d="M 70,210 L 21,210 L 21,150 L 70,150 C 80,150 100,160 99,180 C 99,200 80,210 70,210 Z" stroke="#000000" stroke-width="4.0" fill="none"/>
</g>
<g>
<path d="M 70,290 L 21,290 L 21,230 L 70,230 C 80,230 100,240 99,260 C 99,280 80,290 70,290 Z" stroke="#000000" stroke-width="4.0" fill="none"/>
</g>
<g>
<path d="M 70,370 L 21,370 L 21,310 L 70,310 C 80,310 100,320 99,340 C 99,360 80,370 70,370 Z" stroke="#000000" stroke-width="4.0" fill="none"/>
</g>
<g>
<path d="M 70,450 L 21,450 L 21,390 L 70,390 C 80,390 100,400 99,420 C 99,440 80,450 70,450 Z" stroke="#000000" stroke-width="4.0" fill="none"/>
</g>
<g>
<circle cx="276.0" cy="580.0" r="9.0" stroke="#000000" stroke-width="4.0" fill="none" />
<circle cx="276.0" cy="580.0" r="15.0" stroke="#000000" stroke-width="4.0" fill="none" />
<text text-anchor="start" x="305.0" y="589.0" fill="#000000" style="font-size:24px"><tspan style="font-style:italic;">RAM<tspan style="font-size:80%;baseline-shift:sub;">OE</tspan></tspan></text>
</g>
<g>
<path d="M 170,610 L 140,610 C 150,594 150,566 140,550 L 160,550 C 190,550 210,560 220,580 C 210,600 190,610 170,610 Z" stroke="#000000" stroke-width="4.0" fill="none"/>
</g>
<g>
<path d="M 70,530 L 21,530 L 21,470 L 70,470 C 80,470 100,480 99,500 C 99,520 80,530 70,530 Z" stroke="#000000" stroke-width="4.0" fill="none"/>
</g>
<g>
<path d="M 70,610 L 21,610 L 21,550 L 70,550 C 80,550 100,560 99,580 C 99,600 80,610 70,610 Z" stroke="#000000" stroke-width="4.0" fill="none"/>
</g>
<g>
<path d="M 70,690 L 21,690 L 21,630 L 70,630 C 80,630 100,640 99,660 C 99,680 80,690 70,690 Z" stroke="#000000" stroke-width="4.0" fill="none"/>
</g>
<g>
<circle cx="276.0" cy="740.0" r="9.0" stroke="#000000" stroke-width="4.0" fill="none" />
<circle cx="276.0" cy="740.0" r="15.0" stroke="#000000" stroke-width="4.0" fill="none" />
<text text-anchor="start" x="305.0" y="749.0" fill="#000000" style="font-size:24px"><tspan style="font-style:italic;">U<tspan style="font-size:80%;baseline-shift:sub;">OE</tspan></tspan></text>
</g>
<g>
<path d="M 50,770 L 20,770 C 30,754 30,726 20,710 L 40,710 C 70,710 90,720 100,740 C 90,760 70,770 50,770 Z" stroke="#000000" stroke-width="4.0" fill="none"/>
</g>
<g>
<circle cx="276.0" cy="900.0" r="9.0" stroke="#000000" stroke-width="4.0" fill="none" />
<circle cx="276.0" cy="900.0" r="15.0" stroke="#000000" stroke-width="4.0" fill="none" />
<text text-anchor="start" x="305.0" y="909.0" fill="#000000" style="font-size:24px"><tspan style="font-style:italic;">Bus<tspan style="font-size:80%;baseline-shift:sub;">OE</tspan></tspan></text>
</g>
<g>
<path d="M 170,930 L 140,930 C 150,914 150,886 140,870 L 160,870 C 190,870 210,880 220,900 C 210,920 190,930 170,930 Z" stroke="#000000" stroke-width="4.0" fill="none"/>
</g>
<g>
<path d="M 70,850 L 21,850 L 21,790 L 70,790 C 80,790 100,800 99,820 C 99,840 80,850 70,850 Z" stroke="#000000" stroke-width="4.0" fill="none"/>
</g>
<g>
<path d="M 70,930 L 21,930 L 21,870 L 70,870 C 80,870 100,880 99,900 C 99,920 80,930 70,930 Z" stroke="#000000" stroke-width="4.0" fill="none"/>
</g>
<g>
<circle cx="276.0" cy="1020.0" r="9.0" stroke="#000000" stroke-width="4.0" fill="none" />
<circle cx="276.0" cy="1020.0" r="15.0" stroke="#000000" stroke-width="4.0" fill="none" />
<text text-anchor="start" x="305.0" y="1029.0" fill="#000000" style="font-size:24px"><tspan style="font-style:italic;">Bus Dir</tspan></text>
</g>
<g>
<path d="M 70,1050 L 21,1050 L 21,990 L 70,990 C 80,990 100,1000 99,1020 C 99,1040 80,1050 70,1050 Z" stroke="#000000" stroke-width="4.0" fill="none"/>
</g>
<g>
<circle cx="276.0" cy="1100.0" r="9.0" stroke="#000000" stroke-width="4.0" fill="none" />
<circle cx="276.0" cy="1100.0" r="15.0" stroke="#000000" stroke-width="4.0" fill="none" />
<text text-anchor="start" x="305.0" y="1109.0" fill="#000000" style="font-size:24px"><tspan style="font-style:italic;">Halt Out</tspan></text>
</g>
<g>
<path d="M 50,1130 L 20,1130 C 30,1114 30,1086 20,1070 L 40,1070 C 70,1070 90,1080 100,1100 C 90,1120 70,1130 50,1130 Z" stroke="#000000" stroke-width="4.0" fill="none"/>
</g>
<g>
<circle cx="276.0" cy="1180.0" r="9.0" stroke="#000000" stroke-width="4.0" fill="none" />
<circle cx="276.0" cy="1180.0" r="15.0" stroke="#000000" stroke-width="4.0" fill="none" />
<text text-anchor="start" x="305.0" y="1189.0" fill="#000000" style="font-size:24px"><tspan style="font-style:italic;">MAR Cp</tspan></text>
</g>
<g>
<path d="M 70,1210 L 21,1210 L 21,1150 L 70,1150 C 80,1150 100,1160 99,1180 C 99,1200 80,1210 70,1210 Z" stroke="#000000" stroke-width="4.0" fill="none"/>
</g>
<g>
<path d="M -445,-131 L -445,-101 L -475,-101 L -475,-131 Z" stroke="#000000" stroke-width="4.0" fill="none"/>
<circle cx="-460.0" cy="-116.0" r="9.0" stroke="#000000" stroke-width="4.0" fill="none" />
<text text-anchor="start" x="-460.0" y="-136.0" fill="#000000" style="font-size:24px" transform="rotate(-90,-460.0,-145.0)" ><tspan style="font-style:italic;">U Program</tspan></text>
</g>
<g>
<path d="M -428,-59 L -440,-41 L -452,-59 Z" stroke="#000000" stroke-width="4.0" fill="none"/>
<circle cx="-440.0" cy="-30.0" r="9.0" stroke="#000000" stroke-width="4.0" fill="none" />
</g>
<g>
<path d="M -385,-131 L -385,-101 L -415,-101 L -415,-131 Z" stroke="#000000" stroke-width="4.0" fill="none"/>
<circle cx="-400.0" cy="-116.0" r="9.0" stroke="#000000" stroke-width="4.0" fill="none" />
<text text-anchor="start" x="-400.0" y="-136.0" fill="#000000" style="font-size:24px" transform="rotate(-90,-400.0,-145.0)" ><tspan style="font-style:italic;">CTR<tspan style="font-size:80%;baseline-shift:sub;">CLK</tspan></tspan></text>
</g>
<g>
<path d="M -325,-131 L -325,-101 L -355,-101 L -355,-131 Z" stroke="#000000" stroke-width="4.0" fill="none"/>
<circle cx="-340.0" cy="-116.0" r="9.0" stroke="#000000" stroke-width="4.0" fill="none" />
<text text-anchor="start" x="-340.0" y="-136.0" fill="#000000" style="font-size:24px" transform="rotate(-90,-340.0,-145.0)" ><tspan style="font-style:italic;">CTR<tspan style="font-size:80%;baseline-shift:sub;">MI</tspan></tspan></text>
</g>
<g>
<path d="M -265,-131 L -265,-101 L -295,-101 L -295,-131 Z" stroke="#000000" stroke-width="4.0" fill="none"/>
<circle cx="-280.0" cy="-116.0" r="9.0" stroke="#000000" stroke-width="4.0" fill="none" />
<text text-anchor="start" x="-280.0" y="-136.0" fill="#000000" style="font-size:24px" transform="rotate(-90,-280.0,-145.0)" ><tspan style="font-style:italic;">U Write</tspan></text>
</g>
<g>
<path d="M -248,-59 L -260,-41 L -272,-59 Z" stroke="#000000" stroke-width="4.0" fill="none"/>
<circle cx="-260.0" cy="-30.0" r="9.0" stroke="#000000" stroke-width="4.0" fill="none" />
</g>
<g>
<path d="M -205,-131 L -205,-101 L -235,-101 L -235,-131 Z" stroke="#000000" stroke-width="4.0" fill="none"/>
<circle cx="-220.0" cy="-116.0" r="9.0" stroke="#000000" stroke-width="4.0" fill="none" />
<text text-anchor="start" x="-220.0" y="-136.0" fill="#000000" style="font-size:24px" transform="rotate(-90,-220.0,-145.0)" ><tspan style="font-style:italic;">U Inspect</tspan></text>
</g>
<g>
<path d="M -188,-59 L -200,-41 L -212,-59 Z" stroke="#000000" stroke-width="4.0" fill="none"/>
<circle cx="-200.0" cy="-30.0" r="9.0" stroke="#000000" stroke-width="4.0" fill="none" />
</g>
<g>
<path d="M -145,-131 L -145,-101 L -175,-101 L -175,-131 Z" stroke="#000000" stroke-width="4.0" fill="none"/>
<circle cx="-160.0" cy="-116.0" r="9.0" stroke="#000000" stroke-width="4.0" fill="none" />
<text text-anchor="start" x="-160.0" y="-136.0" fill="#000000" style="font-size:24px" transform="rotate(-90,-160.0,-145.0)" ><tspan style="font-style:italic;">CTR HLT</tspan></text>
</g>
<g>
<path d="M -85,-131 L -85,-101 L -115,-101 L -115,-131 Z" stroke="#000000" stroke-width="4.0" fill="none"/>
<circle cx="-100.0" cy="-116.0" r="9.0" stroke="#000000" stroke-width="4.0" fill="none" />
<text text-anchor="start" x="-100.0" y="-136.0" fill="#000000" style="font-size:24px" transform="rotate(-90,-100.0,-145.0)" ><tspan style="font-style:italic;">CTR<tspan style="font-size:80%;baseline-shift:sub;">RI</tspan></tspan></text>
</g>
<g>
<path d="M -68,-59 L -80,-41 L -92,-59 Z" stroke="#000000" stroke-width="4.0" fill="none"/>
<circle cx="-80.0" cy="-30.0" r="9.0" stroke="#000000" stroke-width="4.0" fill="none" />
</g>
<g>
<path d="M -25,-131 L -25,-101 L -55,-101 L -55,-131 Z" stroke="#000000" stroke-width="4.0" fill="none"/>
<circle cx="-40.0" cy="-116.0" r="9.0" stroke="#000000" stroke-width="4.0" fill="none" />
<text text-anchor="start" x="-40.0" y="-136.0" fill="#000000" style="font-size:24px" transform="rotate(-90,-40.0,-145.0)" ><tspan style="font-style:italic;">CTR<tspan style="font-size:80%;baseline-shift:sub;">RO</tspan></tspan></text>
</g>
<g>
<path d="M -8,-59 L -20,-41 L -32,-59 Z" stroke="#000000" stroke-width="4.0" fill="none"/>
<circle cx="-20.0" cy="-30.0" r="9.0" stroke="#000000" stroke-width="4.0" fill="none" />
</g>
</g>
</svg>