<svg xmlns="http://www.w3.org/2000/svg" 
  width="280" height="280" 
  viewBox="0 -12 230 290"
  >
   <defs>
    <path id="halfmoon"  d="M 0 0 A 10 10 0 0 0 20 0 L 20 0 Z" fill="white" stroke="black" stroke-width="1" />
    <rect id="pin"   width="10" height="10" fill="black"/> 
    <rect id="i_pin" width="10" height="10" fill="white" stroke="black" stroke-width="1" /> 

    <g id="ic">
      <rect x="25" y="0" width="71.1" height="266.7" fill="white" stroke="black" stroke-width="1" rx="5" />

      <use href="#halfmoon" x="50.55" y="0"/>
      <!-- <circle cx="40.7" cy="12.7" r="5" fill="grey"/> -->

      <g id="left-pins">
        <use href="#pin" x="15" y="12.7"  />
        <use href="#pin" x="15" y="38.1"  />
        <use href="#pin" x="15" y="65.5"  />
        <use href="#i_pin" x="15" y="88.9"  />
        <use href="#i_pin" x="15" y="114.3" />
        <use href="#i_pin" x="15" y="139.7" />
        <use href="#pin" x="15" y="165.1" />
        <use href="#i_pin" x="15" y="190.5" />
        <use href="#pin" x="15" y="215.9" />
        <use href="#pin" x="15" y="241.3" />
        
        <text x="30" y="21.7 "  font-size="12" fill="black">1</text>
        <text x="30" y="47.1 "  font-size="12" fill="black">2</text>
        <text x="30" y="74.5 "  font-size="12" fill="black">3</text>
        <text x="30" y="97.9 "  font-size="12" fill="black">4</text>
        <text x="30" y="123.3"  font-size="12" fill="black">5</text>
        <text x="30" y="148.7"  font-size="12" fill="black">6</text>
        <text x="30" y="174.1"  font-size="12" fill="black">7</text>
        <text x="30" y="199.5"  font-size="12" fill="black">8</text>
        <text x="30" y="224.9"  font-size="12" fill="black">9</text>
        <text x="30" y="250.3"  font-size="12" fill="black">10</text>

      </g>

      <!-- Right Pins -->
      <g id="right-pins">
        <use href="#pin" x="96.1" y="12.7" />
        <use href="#pin" x="96.1" y="38.1" />
        <use href="#pin" x="96.1" y="65.5" />
        <use href="#pin" x="96.1" y="88.9" />
        <use href="#i_pin" x="96.1" y="114.3"/>
        <use href="#i_pin" x="96.1" y="139.7"/>
        <use href="#i_pin" x="96.1" y="165.1"/>
        <use href="#i_pin" x="96.1" y="190.5"/>
        <use href="#pin" x="96.1" y="215.9"/>
        <use href="#pin" x="96.1" y="241.3"/>
        
        <text x="80" y="21.7 " font-size="12" fill="black">20</text>
        <text x="80" y="47.1 " font-size="12" fill="black">19</text>
        <text x="80" y="74.5 " font-size="12" fill="black">18</text>
        <text x="80" y="97.9 " font-size="12" fill="black">17</text>
        <text x="80" y="123.3" font-size="12" fill="black">16</text>
        <text x="80" y="148.7" font-size="12" fill="black">15</text>
        <text x="80" y="174.1" font-size="12" fill="black">14</text>
        <text x="80" y="199.5" font-size="12" fill="black">13</text>
        <text x="80" y="224.9" font-size="12" fill="black">12</text>
        <text x="80" y="250.3" font-size="12" fill="black">11</text>
      </g>
    </g>
  </defs>

  <use href="#ic" x="50" y="0"/>
      
    <text  x="55"  y="21.7 " font-size="12" fill="black" text-anchor="end" >NC        </text>
    <text  x="55"  y="47.1 " font-size="12" fill="black" text-anchor="end" >CTR CLK   </text>
    <text  x="55"  y="74.5 " font-size="12" fill="black" text-anchor="end" >CTR HLT   </text>
    <text  x="55"  y="97.9 " font-size="12" fill="black" text-anchor="end" >/CTR MI   </text>
    <text  x="55"  y="123.3" font-size="12" fill="black" text-anchor="end" >/CTR RI   </text>
    <text  x="55"  y="148.7" font-size="12" fill="black" text-anchor="end" >/CTR RO   </text>
    <text  x="55"  y="174.1" font-size="12" fill="black" text-anchor="end" >U Inspect </text>
    <text  x="55"  y="199.5" font-size="12" fill="black" text-anchor="end" >/U Program</text>
    <text  x="55"  y="224.9" font-size="12" fill="black" text-anchor="end" >U Write   </text>
    <text  x="55"  y="250.3" font-size="12" fill="black" text-anchor="end" >GND       </text>
    
    <text x="165" y="21.7 "  font-size="12" fill="black" >Vcc     </text>
    <text x="165" y="47.1 "  font-size="12" fill="black" >MAR Cp  </text>
    <text x="165" y="74.5 "  font-size="12" fill="black" >Halt Out</text>
    <text x="165" y="97.9 "  font-size="12" fill="black" >Bus Dir </text>
    <text x="165" y="123.3"  font-size="12" fill="black" >/Bus OE </text>
    <text x="165" y="148.7"  font-size="12" fill="black" >/U OE   </text>
    <text x="165" y="174.1"  font-size="12" fill="black" >/RAM OE </text>
    <text x="165" y="199.5"  font-size="12" fill="black" >/RAMWE  </text>
    <text x="165" y="224.9"  font-size="12" fill="black" >NC      </text>
    <text x="165" y="250.3"  font-size="12" fill="black" >NC      </text>

  <g transform="translate(105, 140)">
    <text
      text-anchor="middle"
      transform="rotate(90)"
    >
      ATF16v8B - Memory Control
    </text>
  </g>
</svg>
