<?xml version="1.0" encoding="UTF-8" standalone="no"?>
<!-- Created with Digital by H.Neemann -->
<!-- created: Thu Jan 16 23:35:57 EST 2025 -->

<svg
   xmlns:svg="http://www.w3.org/2000/svg"
   xmlns="http://www.w3.org/2000/svg"
   width="158.85mm"
   height="165.9mm"
   viewBox="-477 -364 1059 1106">
<g stroke-linecap="square">
<path d="M -160,-100 L -160,0 L 20,0" stroke="#0000b2" stroke-width="4.0" fill="none"/>
<path d="M -340,740 L -340,320 L 20,320 L 24,320" stroke="#0000b2" stroke-width="4.0" fill="none"/>
<path d="M -460,740 L -460,640 L 20,640 L 24,640" stroke="#0000b2" stroke-width="4.0" fill="none"/>
<path d="M 100,260 L 120,260 L 120,240 L 140,240 L 144,240" stroke="#0000b2" stroke-width="4.0" fill="none"/>
<path d="M -440,40 L -440,200 L 20,200" stroke="#0000b2" stroke-width="4.0" fill="none"/>
<path d="M -80,-20 L -80,520 L 20,520" stroke="#0000b2" stroke-width="4.0" fill="none"/>
<path d="M 220,460 L 240,460" stroke="#0000b2" stroke-width="4.0" fill="none"/>
<path d="M -460,-100 L -460,-80 L -440,-80 L -440,-60" stroke="#0000b2" stroke-width="4.0" fill="none"/>
<path d="M -400,-100 L -400,-80 L -380,-80 L -380,-60" stroke="#0000b2" stroke-width="4.0" fill="none"/>
<path d="M -340,-100 L -340,-80 L -320,-80 L -320,-60" stroke="#0000b2" stroke-width="4.0" fill="none"/>
<path d="M -220,-100 L -220,-80 L -200,-80 L -200,-60" stroke="#0000b2" stroke-width="4.0" fill="none"/>
<path d="M -100,-100 L -100,-80 L -80,-80 L -80,-60" stroke="#0000b2" stroke-width="4.0" fill="none"/>
<path d="M -460,-80 L -460,80 L 20,80" stroke="#0000b2" stroke-width="4.0" fill="none"/>
<path d="M -160,740 L -160,400 L 20,400" stroke="#0000b2" stroke-width="4.0" fill="none"/>
<path d="M -280,-100 L -280,720 L 20,720" stroke="#0000b2" stroke-width="4.0" fill="none"/>
<path d="M 100,20 L 120,20 L 120,40 L 140,40 L 144,40" stroke="#0000b2" stroke-width="4.0" fill="none"/>
<path d="M 100,340 L 240,340" stroke="#0000b2" stroke-width="4.0" fill="none"/>
<path d="M -40,-100 L -40,600 L 20,600 L 24,600" stroke="#0000b2" stroke-width="4.0" fill="none"/>
<path d="M 220,220 L 240,220" stroke="#0000b2" stroke-width="4.0" fill="none"/>
<path d="M 100,540 L 240,540" stroke="#0000b2" stroke-width="4.0" fill="none"/>
<path d="M -100,-80 L -100,160 L 20,160" stroke="#0000b2" stroke-width="4.0" fill="none"/>
<path d="M 100,100 L 120,100 L 120,80 L 140,80 L 144,80" stroke="#0000b2" stroke-width="4.0" fill="none"/>
<path d="M 100,420 L 120,420 L 120,440 L 140,440 L 144,440" stroke="#0000b2" stroke-width="4.0" fill="none"/>
<path d="M -440,-20 L -440,40 L 20,40" stroke="#0000b2" stroke-width="4.0" fill="none"/>
<path d="M -440,560 L -440,360 L 20,360 L 24,360" stroke="#0000b2" stroke-width="4.0" fill="none"/>
<path d="M -200,-20 L -200,680 L 20,680" stroke="#0000b2" stroke-width="4.0" fill="none"/>
<path d="M 100,620 L 240,620" stroke="#0000b2" stroke-width="4.0" fill="none"/>
<path d="M -320,-20 L -320,240 L 20,240" stroke="#0000b2" stroke-width="4.0" fill="none"/>
<path d="M -440,740 L -440,560 L 20,560" stroke="#0000b2" stroke-width="4.0" fill="none"/>
<path d="M 100,180 L 120,180 L 120,200 L 140,200 L 144,200" stroke="#0000b2" stroke-width="4.0" fill="none"/>
<path d="M -380,-20 L -380,120 L 20,120" stroke="#0000b2" stroke-width="4.0" fill="none"/>
<path d="M -100,740 L -100,440 L 20,440" stroke="#0000b2" stroke-width="4.0" fill="none"/>
<path d="M 220,60 L 240,60" stroke="#0000b2" stroke-width="4.0" fill="none"/>
<path d="M 100,700 L 240,700" stroke="#0000b2" stroke-width="4.0" fill="none"/>
<path d="M -100,160 L -100,440" stroke="#0000b2" stroke-width="4.0" fill="none"/>
<path d="M -200,680 L -200,740" stroke="#0000b2" stroke-width="4.0" fill="none"/>
<path d="M -40,600 L -40,740" stroke="#0000b2" stroke-width="4.0" fill="none"/>
<path d="M 20,280 L -460,280 L -460,480 L 140,480 L 144,480" stroke="#0000b2" stroke-width="4.0" fill="none"/>
<path d="M -460,480 L -460,640" stroke="#0000b2" stroke-width="4.0" fill="none"/>
<path d="M -460,80 L -460,280" stroke="#0000b2" stroke-width="4.0" fill="none"/>
<path d="M -400,-80 L -400,740" stroke="#0000b2" stroke-width="4.0" fill="none"/>
<path d="M -80,520 L -80,740" stroke="#0000b2" stroke-width="4.0" fill="none"/>
<path d="M -340,-80 L -340,320" stroke="#0000b2" stroke-width="4.0" fill="none"/>
<path d="M -440,200 L -440,360" stroke="#0000b2" stroke-width="4.0" fill="none"/>
<path d="M -280,720 L -280,740" stroke="#0000b2" stroke-width="4.0" fill="none"/>
<path d="M -380,120 L -380,740" stroke="#0000b2" stroke-width="4.0" fill="none"/>
<path d="M -220,-80 L -220,740" stroke="#0000b2" stroke-width="4.0" fill="none"/>
<path d="M -320,240 L -320,740" stroke="#0000b2" stroke-width="4.0" fill="none"/>
<path d="M -160,0 L -160,400" stroke="#0000b2" stroke-width="4.0" fill="none"/>
<g>
<circle cx="-160.0" cy="0.0" r="4.0" stroke="#0000b2" stroke-width="4.0" fill="#0000b2" />
<circle cx="-340.0" cy="320.0" r="4.0" stroke="#0000b2" stroke-width="4.0" fill="#0000b2" />
<circle cx="-460.0" cy="640.0" r="4.0" stroke="#0000b2" stroke-width="4.0" fill="#0000b2" />
<circle cx="-440.0" cy="200.0" r="4.0" stroke="#0000b2" stroke-width="4.0" fill="#0000b2" />
<circle cx="-80.0" cy="520.0" r="4.0" stroke="#0000b2" stroke-width="4.0" fill="#0000b2" />
<circle cx="-460.0" cy="-80.0" r="4.0" stroke="#0000b2" stroke-width="4.0" fill="#0000b2" />
<circle cx="-400.0" cy="-80.0" r="4.0" stroke="#0000b2" stroke-width="4.0" fill="#0000b2" />
<circle cx="-340.0" cy="-80.0" r="4.0" stroke="#0000b2" stroke-width="4.0" fill="#0000b2" />
<circle cx="-220.0" cy="-80.0" r="4.0" stroke="#0000b2" stroke-width="4.0" fill="#0000b2" />
<circle cx="-100.0" cy="-80.0" r="4.0" stroke="#0000b2" stroke-width="4.0" fill="#0000b2" />
<circle cx="-460.0" cy="80.0" r="4.0" stroke="#0000b2" stroke-width="4.0" fill="#0000b2" />
<circle cx="-160.0" cy="400.0" r="4.0" stroke="#0000b2" stroke-width="4.0" fill="#0000b2" />
<circle cx="-280.0" cy="720.0" r="4.0" stroke="#0000b2" stroke-width="4.0" fill="#0000b2" />
<circle cx="-460.0" cy="280.0" r="4.0" stroke="#0000b2" stroke-width="4.0" fill="#0000b2" />
<circle cx="-40.0" cy="600.0" r="4.0" stroke="#0000b2" stroke-width="4.0" fill="#0000b2" />
<circle cx="-100.0" cy="160.0" r="4.0" stroke="#0000b2" stroke-width="4.0" fill="#0000b2" />
<circle cx="-460.0" cy="480.0" r="4.0" stroke="#0000b2" stroke-width="4.0" fill="#0000b2" />
<circle cx="-440.0" cy="40.0" r="4.0" stroke="#0000b2" stroke-width="4.0" fill="#0000b2" />
<circle cx="-440.0" cy="360.0" r="4.0" stroke="#0000b2" stroke-width="4.0" fill="#0000b2" />
<circle cx="-200.0" cy="680.0" r="4.0" stroke="#0000b2" stroke-width="4.0" fill="#0000b2" />
<circle cx="-320.0" cy="240.0" r="4.0" stroke="#0000b2" stroke-width="4.0" fill="#0000b2" />
<circle cx="-440.0" cy="560.0" r="4.0" stroke="#0000b2" stroke-width="4.0" fill="#0000b2" />
<circle cx="-380.0" cy="120.0" r="4.0" stroke="#0000b2" stroke-width="4.0" fill="#0000b2" />
<circle cx="-100.0" cy="440.0" r="4.0" stroke="#0000b2" stroke-width="4.0" fill="#0000b2" />
</g>
<g>
<circle cx="256.0" cy="60.0" r="9.0" stroke="#000000" stroke-width="4.0" fill="none" />
<circle cx="256.0" cy="60.0" r="15.0" stroke="#000000" stroke-width="4.0" fill="none" />
<text text-anchor="start" x="285.0" y="69.0" fill="#000000" style="font-size:24px"><tspan style="font-style:italic;">/RAM<tspan style="font-size:80%;baseline-shift:sub;">Write</tspan> (13)</tspan></text>
</g>
<g>
<path d="M 170,90 L 140,90 C 150,74 150,46 140,30 L 160,30 C 190,30 210,40 220,60 C 210,80 190,90 170,90 Z" stroke="#000000" stroke-width="4.0" fill="none"/>
</g>
<g>
<path d="M 70,50 L 21,50 L 21,-10 L 70,-10 C 80,-10 100,0 99,20 C 99,40 80,50 70,50 Z" stroke="#000000" stroke-width="4.0" fill="none"/>
</g>
<g>
<path d="M 70,130 L 21,130 L 21,70 L 70,70 C 80,70 100,80 99,100 C 99,120 80,130 70,130 Z" stroke="#000000" stroke-width="4.0" fill="none"/>
</g>
<g>
<circle cx="256.0" cy="220.0" r="9.0" stroke="#000000" stroke-width="4.0" fill="none" />
<circle cx="256.0" cy="220.0" r="15.0" stroke="#000000" stroke-width="4.0" fill="none" />
<text text-anchor="start" x="285.0" y="229.0" fill="#000000" style="font-size:24px"><tspan style="font-style:italic;">/RAM<tspan style="font-size:80%;baseline-shift:sub;">OutputEnable</tspan> (14)</tspan></text>
</g>
<g>
<path d="M 170,250 L 140,250 C 150,234 150,206 140,190 L 160,190 C 190,190 210,200 220,220 C 210,240 190,250 170,250 Z" stroke="#000000" stroke-width="4.0" fill="none"/>
</g>
<g>
<path d="M 70,210 L 21,210 L 21,150 L 70,150 C 80,150 100,160 99,180 C 99,200 80,210 70,210 Z" stroke="#000000" stroke-width="4.0" fill="none"/>
</g>
<g>
<path d="M 70,290 L 21,290 L 21,230 L 70,230 C 80,230 100,240 99,260 C 99,280 80,290 70,290 Z" stroke="#000000" stroke-width="4.0" fill="none"/>
</g>
<g>
<circle cx="256.0" cy="340.0" r="9.0" stroke="#000000" stroke-width="4.0" fill="none" />
<circle cx="256.0" cy="340.0" r="15.0" stroke="#000000" stroke-width="4.0" fill="none" />
<text text-anchor="start" x="285.0" y="349.0" fill="#000000" style="font-size:24px"><tspan style="font-style:italic;">/User<tspan style="font-size:80%;baseline-shift:sub;">OutputEnable</tspan> (15)</tspan></text>
</g>
<g>
<path d="M 50,370 L 20,370 C 30,354 30,326 20,310 L 40,310 C 70,310 90,320 100,340 C 90,360 70,370 50,370 Z" stroke="#000000" stroke-width="4.0" fill="none"/>
</g>
<g>
<circle cx="256.0" cy="460.0" r="9.0" stroke="#000000" stroke-width="4.0" fill="none" />
<circle cx="256.0" cy="460.0" r="15.0" stroke="#000000" stroke-width="4.0" fill="none" />
<text text-anchor="start" x="285.0" y="469.0" fill="#000000" style="font-size:24px"><tspan style="font-style:italic;">/Databus<tspan style="font-size:80%;baseline-shift:sub;">OutputEnable</tspan> (16)</tspan></text>
</g>
<g>
<path d="M 170,490 L 140,490 C 150,474 150,446 140,430 L 160,430 C 190,430 210,440 220,460 C 210,480 190,490 170,490 Z" stroke="#000000" stroke-width="4.0" fill="none"/>
</g>
<g>
<path d="M 70,450 L 21,450 L 21,390 L 70,390 C 80,390 100,400 99,420 C 99,440 80,450 70,450 Z" stroke="#000000" stroke-width="4.0" fill="none"/>
</g>
<g>
<circle cx="256.0" cy="540.0" r="9.0" stroke="#000000" stroke-width="4.0" fill="none" />
<circle cx="256.0" cy="540.0" r="15.0" stroke="#000000" stroke-width="4.0" fill="none" />
<text text-anchor="start" x="285.0" y="549.0" fill="#000000" style="font-size:24px"><tspan style="font-style:italic;">Databus<tspan style="font-size:80%;baseline-shift:sub;">Direction</tspan> (17)</tspan></text>
</g>
<g>
<path d="M 70,570 L 21,570 L 21,510 L 70,510 C 80,510 100,520 99,540 C 99,560 80,570 70,570 Z" stroke="#000000" stroke-width="4.0" fill="none"/>
</g>
<g>
<circle cx="256.0" cy="620.0" r="9.0" stroke="#000000" stroke-width="4.0" fill="none" />
<circle cx="256.0" cy="620.0" r="15.0" stroke="#000000" stroke-width="4.0" fill="none" />
<text text-anchor="start" x="285.0" y="629.0" fill="#000000" style="font-size:24px"><tspan style="font-style:italic;">Halt<tspan style="font-size:80%;baseline-shift:sub;">Out</tspan> (18)</tspan></text>
</g>
<g>
<path d="M 50,650 L 20,650 C 30,634 30,606 20,590 L 40,590 C 70,590 90,600 100,620 C 90,640 70,650 50,650 Z" stroke="#000000" stroke-width="4.0" fill="none"/>
</g>
<g>
<circle cx="256.0" cy="700.0" r="9.0" stroke="#000000" stroke-width="4.0" fill="none" />
<circle cx="256.0" cy="700.0" r="15.0" stroke="#000000" stroke-width="4.0" fill="none" />
<text text-anchor="start" x="285.0" y="709.0" fill="#000000" style="font-size:24px"><tspan style="font-style:italic;">MAR<tspan style="font-size:80%;baseline-shift:sub;">Clock</tspan> (19)</tspan></text>
</g>
<g>
<path d="M 70,730 L 21,730 L 21,670 L 70,670 C 80,670 100,680 99,700 C 99,720 80,730 70,730 Z" stroke="#000000" stroke-width="4.0" fill="none"/>
</g>
<g>
<path d="M -445,-131 L -445,-101 L -475,-101 L -475,-131 Z" stroke="#000000" stroke-width="4.0" fill="none"/>
<circle cx="-460.0" cy="-116.0" r="9.0" stroke="#000000" stroke-width="4.0" fill="none" />
<text text-anchor="start" x="-460.0" y="-136.0" fill="#000000" style="font-size:24px" transform="rotate(-90,-460.0,-145.0)" ><tspan style="font-style:italic;">User<tspan style="font-size:80%;baseline-shift:sub;">Program</tspan> (8)</tspan></text>
</g>
<g>
<path d="M -428,-59 L -440,-41 L -452,-59 Z" stroke="#000000" stroke-width="4.0" fill="none"/>
<circle cx="-440.0" cy="-30.0" r="9.0" stroke="#000000" stroke-width="4.0" fill="none" />
</g>
<g>
<path d="M -385,-131 L -385,-101 L -415,-101 L -415,-131 Z" stroke="#000000" stroke-width="4.0" fill="none"/>
<circle cx="-400.0" cy="-116.0" r="9.0" stroke="#000000" stroke-width="4.0" fill="none" />
<text text-anchor="start" x="-400.0" y="-136.0" fill="#000000" style="font-size:24px" transform="rotate(-90,-400.0,-145.0)" ><tspan style="font-style:italic;">User<tspan style="font-size:80%;baseline-shift:sub;">Write</tspan> (9)</tspan></text>
</g>
<g>
<path d="M -368,-59 L -380,-41 L -392,-59 Z" stroke="#000000" stroke-width="4.0" fill="none"/>
<circle cx="-380.0" cy="-30.0" r="9.0" stroke="#000000" stroke-width="4.0" fill="none" />
</g>
<g>
<path d="M -325,-131 L -325,-101 L -355,-101 L -355,-131 Z" stroke="#000000" stroke-width="4.0" fill="none"/>
<circle cx="-340.0" cy="-116.0" r="9.0" stroke="#000000" stroke-width="4.0" fill="none" />
<text text-anchor="start" x="-340.0" y="-136.0" fill="#000000" style="font-size:24px" transform="rotate(-90,-340.0,-145.0)" ><tspan style="font-style:italic;">User<tspan style="font-size:80%;baseline-shift:sub;">Inspect</tspan> (7)</tspan></text>
</g>
<g>
<path d="M -308,-59 L -320,-41 L -332,-59 Z" stroke="#000000" stroke-width="4.0" fill="none"/>
<circle cx="-320.0" cy="-30.0" r="9.0" stroke="#000000" stroke-width="4.0" fill="none" />
</g>
<g>
<path d="M -265,-131 L -265,-101 L -295,-101 L -295,-131 Z" stroke="#000000" stroke-width="4.0" fill="none"/>
<circle cx="-280.0" cy="-116.0" r="9.0" stroke="#000000" stroke-width="4.0" fill="none" />
<text text-anchor="start" x="-280.0" y="-136.0" fill="#000000" style="font-size:24px" transform="rotate(-90,-280.0,-145.0)" ><tspan style="font-style:italic;">Control<tspan style="font-size:80%;baseline-shift:sub;">Clock</tspan> (2)</tspan></text>
</g>
<g>
<path d="M -205,-131 L -205,-101 L -235,-101 L -235,-131 Z" stroke="#000000" stroke-width="4.0" fill="none"/>
<circle cx="-220.0" cy="-116.0" r="9.0" stroke="#000000" stroke-width="4.0" fill="none" />
<text text-anchor="start" x="-220.0" y="-136.0" fill="#000000" style="font-size:24px" transform="rotate(-90,-220.0,-145.0)" ><tspan style="font-style:italic;">/Control<tspan style="font-size:80%;baseline-shift:sub;">MARIn</tspan> (4)</tspan></text>
</g>
<g>
<path d="M -188,-59 L -200,-41 L -212,-59 Z" stroke="#000000" stroke-width="4.0" fill="none"/>
<circle cx="-200.0" cy="-30.0" r="9.0" stroke="#000000" stroke-width="4.0" fill="none" />
</g>
<g>
<path d="M -145,-131 L -145,-101 L -175,-101 L -175,-131 Z" stroke="#000000" stroke-width="4.0" fill="none"/>
<circle cx="-160.0" cy="-116.0" r="9.0" stroke="#000000" stroke-width="4.0" fill="none" />
<text text-anchor="start" x="-160.0" y="-136.0" fill="#000000" style="font-size:24px" transform="rotate(-90,-160.0,-145.0)" ><tspan style="font-style:italic;">/Control<tspan style="font-size:80%;baseline-shift:sub;">RAMIn</tspan> (5)</tspan></text>
</g>
<g>
<path d="M -85,-131 L -85,-101 L -115,-101 L -115,-131 Z" stroke="#000000" stroke-width="4.0" fill="none"/>
<circle cx="-100.0" cy="-116.0" r="9.0" stroke="#000000" stroke-width="4.0" fill="none" />
<text text-anchor="start" x="-100.0" y="-136.0" fill="#000000" style="font-size:24px" transform="rotate(-90,-100.0,-145.0)" ><tspan style="font-style:italic;">/Control<tspan style="font-size:80%;baseline-shift:sub;">RAMOut</tspan> (6)</tspan></text>
</g>
<g>
<path d="M -68,-59 L -80,-41 L -92,-59 Z" stroke="#000000" stroke-width="4.0" fill="none"/>
<circle cx="-80.0" cy="-30.0" r="9.0" stroke="#000000" stroke-width="4.0" fill="none" />
</g>
<g>
<path d="M -25,-131 L -25,-101 L -55,-101 L -55,-131 Z" stroke="#000000" stroke-width="4.0" fill="none"/>
<circle cx="-40.0" cy="-116.0" r="9.0" stroke="#000000" stroke-width="4.0" fill="none" />
<text text-anchor="start" x="-40.0" y="-136.0" fill="#000000" style="font-size:24px" transform="rotate(-90,-40.0,-145.0)" ><tspan style="font-style:italic;">Control<tspan style="font-size:80%;baseline-shift:sub;">HaltIn</tspan> (3)</tspan></text>
</g>
</g>
</svg>